<?xml version="1.0" encoding="UTF-8" standalone="no"?><svg width="404" height="382" viewBox="0 0 404 382" xmlns="http://www.w3.org/2000/svg" xmlns:xlink="http://www.w3.org/1999/xlink"><svg width="83.59" height="96" viewBox="0 0 101 116" id="bag" x="100.36" y="190"><title>bag</title><path d="M54.5 84h-8v4h8v-4zm2 6h-12v-8h12v8zm40 8h-92v10c0 2.21 1.79 4 4 4h84c2.21 0 4-1.79 4-4V98zm0-46c0-2.21-1.79-4-4-4h-84c-2.21 0-4 1.79-4 4v44h92V52zm-28-31.56C68.5 11.36 61.14 4 52.06 4h-2c-9.7 0-17.56 7.86-17.56 17.56V44h36V20.44zm24 95.56h-84c-4.41 0-8-3.59-8-8V52c0-4.41 3.59-8 8-8h20V21.69C28.5 9.71 38.21 0 50.19 0h2C63.41 0 72.5 9.09 72.5 20.31V44h20c4.41 0 8 3.59 8 8v56c0 4.41-3.59 8-8 8z" fill="#FF5274" fill-rule="evenodd"/></svg><svg width="107.56" height="96" viewBox="0 0 121 108" id="dress" x="114.61" y="94"><title>Shape</title><path d="M60.5 72c-1.1 0-2-.9-2-2s.9-2 2-2 2 .9 2 2-.9 2-2 2zm0 14c-1.1 0-2-.9-2-2s.9-2 2-2 2 .9 2 2-.9 2-2 2zm35.73-75.99L69.89 4h-.15l-9.27 56.03L51.2 4h-.15l-26.34 6.01L4.85 76.39l17.72 7.66 8.1-29.36v45.36c0 1.99 10.76 3.63 24.86 3.95l4.94-9.95 4.94 9.95c14.1-.32 24.86-1.96 24.86-3.95V54.69l8.1 29.36 17.73-7.66-19.87-66.38zm21.43 70.06l-17.72 7.65a3.88 3.88 0 0 1-3.28-.07 3.952 3.952 0 0 1-2.11-2.53l-.31-1.1v16.03c0 4.91-6.57 5.94-10.5 6.56-4.72.74-11.2 1.23-18.24 1.39h-.09c-1.5 0-2.88-.86-3.56-2.21L60.47 103l-1.38 2.79a3.99 3.99 0 0 1-3.56 2.21h-.08c-7.05-.16-13.53-.65-18.25-1.39-3.93-.62-10.5-1.65-10.5-6.56V84.02l-.3 1.1a4.01 4.01 0 0 1-2.11 2.53c-.55.27-1.13.4-1.72.4-.53 0-1.07-.11-1.57-.33L3.28 80.07c-1.86-.8-2.82-2.88-2.24-4.83L20.91 8.85a3.986 3.986 0 0 1 2.92-2.75l26.34-6c.29-.07.58-.1.88-.1h.15c1.94 0 3.6 1.42 3.92 3.35l5.35 32.34 5.35-32.34C66.14 1.42 67.8 0 69.74 0h.15c.3 0 .59.03.88.1l26.34 6c1.39.32 2.51 1.37 2.92 2.75l19.87 66.39c.58 1.95-.38 4.03-2.24 4.83z" fill="#FF5274" fill-rule="evenodd"/></svg><svg width="114.61" height="96" viewBox="0 0 117 98" id="glasses" y="94"><title>glasses</title><path d="M109.85 48.08s-.11-2.11-2.82-2.11c-.36 0-.76.03-1.22.12-3.89.71-15.21 3.64-24.25 11.95-9.03 8.32-18.94 18.22-18.18 21.93.75 3.7 9.73 12.98 20.2 13.94.71.07 1.43.1 2.15.1 9.99 0 21.19-6.05 24.12-14.04 3.14-8.58 4.62-22.4 0-31.89zM60.5 78h-4v2h4v-2zM35.44 58.04C26.4 49.73 15.08 46.8 11.19 46.09c-.46-.09-.86-.12-1.22-.12-2.71 0-2.82 2.11-2.82 2.11-4.62 9.49-3.14 23.31 0 31.89 2.93 7.99 14.13 14.04 24.12 14.04.72 0 1.44-.03 2.15-.1 10.47-.96 19.45-10.24 20.2-13.94.76-3.71-9.15-13.61-18.18-21.93zm78.21 23.28C110.23 90.67 97.96 98 85.73 98c-.85 0-1.7-.04-2.52-.12C72.18 96.87 62.08 88.04 59.79 82h-2.58c-2.29 6.04-12.39 14.87-23.42 15.88-.82.08-1.67.12-2.52.12-12.23 0-24.5-7.33-27.92-16.68-3.43-9.36-4.88-24.03-.09-34.44.38-1.62 1.5-3.17 3.24-4.08V1c0-.55.45-1 1-1h2c.55 0 1 .45 1 1v41.01c.46.02.94.07 1.43.16 2.54.47 15.76 3.29 26.27 12.96C49.94 65.94 55.05 71.95 56.86 76h3.28c1.81-4.05 6.92-10.06 18.66-20.87 10.51-9.67 23.73-12.49 26.27-12.96.49-.09.97-.14 1.43-.16V1c0-.55.45-1 1-1h2c.55 0 1 .45 1 1v41.8c1.74.91 2.86 2.46 3.24 4.08 4.79 10.41 3.34 25.08-.09 34.44z" fill="#FF5274" fill-rule="evenodd"/></svg><svg width="100.36" height="96" viewBox="0 0 115 110" id="polo" x="238"><title>polo</title><path d="M80.45 6h-4.09c.06.23.09.47.07.71-.77 7.1-5.85 14.46-6.07 14.68-.38.39-.9.62-1.45.62h-.04c-4.96-.11-10.09-6.35-11.37-7.83-1.28 1.48-6.41 7.72-11.37 7.83h-.04c-.55 0-1.07-.23-1.45-.62-.22-.22-5.3-7.58-6.07-14.68-.02-.24.01-.48.07-.71h-4.07L4.65 21.46 18.7 43l5.89-3v62c0 2.21 14.74 4 32.92 4s32.91-1.79 32.91-4V40l8.24 3 11.71-21.54L80.45 6zM46.3 4c-.42 1.24-1.59 1.72-2.83 1.91-1.48.8-2.9.59-2.9.59.7 6.51 5.52 13.51 5.52 13.51 3.49-.07 7.37-4.09 9.2-6.22C49.93 12.34 46.3 4 46.3 4zm25.26 1.92c-1.24-.18-2.43-.67-2.84-1.92 0 0-3.64 8.36-9 9.79 1.82 2.14 5.71 6.15 9.19 6.22 0 0 4.82-7 5.52-13.51 0 0-1.4.21-2.87-.58zm42.31 17.46l-11.7 21.53A3.995 3.995 0 0 1 98.66 47c-.45 0-.91-.08-1.36-.24l-2.89-1.05V102c0 4.81-5.95 5.92-13.15 6.8-6.37.77-14.8 1.2-23.75 1.2s-17.38-.43-23.76-1.2c-7.19-.87-13.15-1.99-13.15-6.8V46.51l-.1.06a3.992 3.992 0 0 1-5.14-1.38L1.31 23.65c-.62-.94-.81-2.11-.52-3.21a3.992 3.992 0 0 1 2.03-2.53L32.74 2.44c.57-.29 1.19-.44 1.83-.44H41.04l1.02.01.74.01h.03A3.998 3.998 0 0 1 46.13 0h.17c1.58 0 3.02.94 3.66 2.4 1.3 2.99 4.41 7.36 6.7 7.6h1.7c2.29-.23 5.35-4.54 6.7-7.61A3.991 3.991 0 0 1 68.72.02l.18.01c1.37.05 2.61.84 3.28 2l.85-.01c.4-.01.82-.02 1.26-.02h6.16c.63 0 1.26.15 1.83.44l29.92 15.47c.95.49 1.67 1.35 1.98 2.38.32 1.03.21 2.14-.31 3.09z" fill="#FF5274" fill-rule="evenodd"/></svg><svg width="100.36" height="96" viewBox="0 0 115 110" id="shirt" y="190"><title>shirt</title><path d="M80.45 4h-9.98c0 7.73-6.25 14-13.96 14-7.71 0-13.96-6.27-13.96-14h-7.98L4.65 19.46 18.7 41l5.89-3v64c0 2.21 14.74 4 32.92 4s32.91-1.79 32.91-4V38l8.24 3 11.71-21.54L80.45 4zm33.42 17.38l-11.7 21.53A3.995 3.995 0 0 1 98.66 45c-.45 0-.91-.08-1.36-.24l-2.89-1.05V102c0 4.81-5.95 5.93-13.15 6.8-6.37.77-14.8 1.2-23.75 1.2s-17.38-.43-23.76-1.2c-7.19-.87-13.15-1.99-13.15-6.8V44.51l-.1.06a3.992 3.992 0 0 1-5.14-1.38L1.31 21.65c-.62-.94-.81-2.11-.52-3.21a3.992 3.992 0 0 1 2.03-2.53L32.74.44C33.31.15 33.93 0 34.57 0h7.98c2.2 0 3.99 1.79 3.99 4 0 5.51 4.47 10 9.97 10 5.5 0 9.98-4.49 9.98-10 0-2.21 1.78-4 3.98-4h9.98c.63 0 1.26.15 1.83.44l29.92 15.47c.95.49 1.67 1.35 1.98 2.38.32 1.03.21 2.14-.31 3.09z" fill="#FF5274" fill-rule="evenodd"/></svg><svg width="117" height="56" viewBox="0 0 117 56" id="shoe" x="121"><title>shoe</title><path d="M112.5 44H4.5v4c0 2.21 1.79 4 4 4h100c2.21 0 4-1.79 4-4v-4zM97.67 27.42c-1.24-.27-2.81-.83-4.58-1.59L76.97 41.94h35.41s-1.63-11.64-14.71-14.52zM71.72 14.19L43.97 41.94h30.17l16.99-16.98c-5.72-2.67-13.07-6.93-19.41-10.77zM58.44 5.9c-1.99-1.24-3.86-1.84-5.59-1.84s-3.31.62-4.69 1.84c-2.73 2.44-6.83 9.63-17.86 9.63-10.92 0-15.03-9.62-20.1-9.62l-.22.01c-5.17.27-5.48 7.82-5.48 14.41v21.61h36.66l-.01-.01 28.82-28.81c-5.55-3.4-10.06-6.3-11.53-7.22zM116.5 48c0 4.41-3.59 8-8 8H8.5c-4.41 0-8-3.59-8-8v-2c0-.74.21-1.42.56-2.01-.35-.6-.56-1.3-.56-2.05V20.33C.5 14.5.5 2.36 9.78 1.87l.42-.01c3.48 0 6.16 2.22 8.74 4.38 3.1 2.57 6.29 5.23 11.36 5.23 7.3 0 10.62-3.67 13.29-6.61.66-.74 1.29-1.43 1.94-2.01C47.62.99 50.15 0 52.85 0c2.49 0 5.07.82 7.68 2.44l1.93 1.23c19 12.05 31.13 18.71 36.05 19.79 15.62 3.43 17.74 17.32 17.83 17.91.12.86-.12 1.68-.51 2.43.42.63.67 1.38.67 2.2v2z" fill="#FF5274" fill-rule="evenodd"/></svg><svg width="121" height="94" viewBox="0 0 121 94" id="skirt"><title>skirt</title><path d="M104.41 53.72c-2.1-10-11.18-43.95-15.97-48.07-1.15-.99-2.17-1.34-3.1-1.34-1.19 0-2.25.57-3.26 1.09-1.81.93-11.17 4.26-21.59 4.26-10.41 0-21.39-4.2-23.2-5.14-.66-.34-1.24-.51-1.79-.51-.96 0-1.84.53-2.95 1.64-4.46 4.47-13.87 38.07-15.97 48.07-2.1 10-11.98 14.02-11.98 14.02 3.18 6.82 13.5 10.3 17.92 11.51l13.09-42.48 1.91.59-13.05 42.37.09.02v2.01s.21 4 7.95 4h.09c4.54 0 7.33 1.02 10.38 2.07l3.42-17.84 1.97.38-3.48 18.1c1.62.51 3.41.99 5.62 1.3 1.12.15 2.12.22 3.02.22 5.2 0 6.96-2.22 6.96-2.22s1.77 2.22 6.97 2.22c.9 0 1.9-.07 3.02-.22 2.21-.31 4-.79 5.63-1.31l-3.48-18.09 1.97-.38 3.42 17.84c3.05-1.05 5.84-2.07 10.37-2.07h.09c7.74 0 7.95-4 7.95-4v-2.01l.1-.02-13.05-42.37 1.91-.59 13.09 42.48c4.42-1.21 14.73-4.7 17.91-11.51 0 0-9.88-4.02-11.98-14.02zM120 69.43c-3.73 8.02-14.37 11.97-19.75 13.5-.52 2.09-2.71 6.84-11.86 6.84-3.73 0-5.96.77-8.78 1.75-2.32.8-4.94 1.7-8.58 2.22-1.24.17-2.44.26-3.57.26-3.1 0-5.37-.65-6.97-1.42-1.59.77-3.86 1.42-6.96 1.42-1.13 0-2.33-.09-3.57-.26-3.64-.52-6.26-1.42-8.58-2.22-2.82-.98-5.06-1.75-8.87-1.75-9.08 0-11.26-4.75-11.77-6.85C15.36 81.4 4.72 77.45.98 69.43c-.46-.99-.48-2.12-.09-3.14a4.019 4.019 0 0 1 2.19-2.26c.08-.03 7.97-3.42 9.59-11.14 1.3-6.19 11.05-44.04 17.06-50.07C30.93 1.61 32.84 0 35.5 0c1.18 0 2.36.32 3.61.96 1.14.58 11.55 4.69 21.38 4.69 10.05 0 18.79-3.31 19.77-3.81l.1-.06c1.21-.62 2.86-1.47 4.98-1.47 2 0 3.92.77 5.7 2.3 1.21 1.04 4.03 3.47 10.21 23.69 3.09 10.11 5.94 21.24 7.07 26.59 1.62 7.72 9.51 11.11 9.57 11.14 1.01.41 1.81 1.22 2.21 2.24.4 1.03.37 2.17-.1 3.16z" fill="#FF5274" fill-rule="evenodd"/></svg><svg width="65.38" height="96" viewBox="0 0 79 116" id="sock" x="183.95" y="190"><title>sock</title><path d="M74.48 73.96V63.19L57.31 74.38l9.62 14.76c5.18-3.43 7.9-9.3 7.55-15.18zM74.5 4h-36v10h-.04v8h36.02v-6h.02V4zM13.36 78.53c-.69.4-1.33.86-1.95 1.33l22.99 28.11 30.82-17.8L54.54 73.8l1.67-1.1 18.27-11.9V24H38.46v40.04l-25.1 14.49zm-3.45 2.65c-5.37 5.31-6.73 13.74-2.78 20.58l1 1.73C11.28 108.95 17 112 22.88 112c2.88 0 5.81-.74 8.48-2.28l1.28-.74-22.73-27.8zm68.57-7.34c.43 7.96-3.57 15.36-10.46 19.34l-34.66 20A20.901 20.901 0 0 1 22.88 116c-7.49 0-14.47-4.03-18.21-10.51l-1-1.73c-5.79-10.03-2.35-22.9 7.69-28.69l23.1-13.34V4h.04c0-2.21 1.79-4 4-4h36c2.21 0 4 1.79 4 4v6c0 .08-.02.15-.02.22v63.62z" fill="#FF5274" fill-rule="evenodd"/></svg><svg width="72.8" height="96" viewBox="0 0 91 120" id="trousers" x="249.32999999999998" y="190"><title>trousers</title><path d="M77.67 12H13.32l-8.01 92.28 33.16 3.51 5.86-67.56h2.33l5.86 67.56 33.16-3.5L77.67 12zm-.27-3.14V4.02H13.59v4.84l-.1 1.14H77.5l-.1-1.14zM4.55 113.02l33.21 2.93.54-6.17-33.16-3.5-.59 6.74zm81.89 0l-.59-6.74-33.16 3.5.54 6.17 33.21-2.93zm3.05 2.58c-.68.82-1.65 1.33-2.71 1.42l-33.2 2.94c-.12.01-.24.01-.35.01-.94 0-1.84-.33-2.56-.94a4.018 4.018 0 0 1-1.41-2.73L45.5 72.96l-3.77 43.34c-.09 1.06-.6 2.05-1.41 2.73-.72.61-1.62.94-2.56.94-.11 0-.23 0-.35-.01l-33.2-2.94c-1.06-.09-2.03-.6-2.71-1.42a4.06 4.06 0 0 1-.92-2.94L9.6 8.69V4.02C9.6 1.8 11.39 0 13.59 0H77.4c2.2 0 3.99 1.8 3.99 4.02v4.67l9.02 103.97a4.06 4.06 0 0 1-.92 2.94z" fill="#FF5274" fill-rule="evenodd"/></svg><svg width="64.8" height="96" viewBox="0 0 81 120" id="vest" x="338.36"><title>vest</title><path d="M76.5 106.92c0 2.8-16.12 5.08-36 5.08s-36-2.28-36-5.08v-2c0 2.8 16.12 5.08 36 5.08s36-2.28 36-5.08V57.91c-7.57 0-13.72-12.46-13.98-28.03h-.02V4.01h-8v20.86c0 7.19-5.82 13.02-13 13.02h-2c-7.18 0-13-5.83-13-13.02V4.01h-8v25.87h-.02c-.26 15.57-6.41 28.03-13.98 28.03v52.99c0 2.81 16.12 5.09 36 5.09s36-2.28 36-5.09v-3.98zm-9.98 11.55c-6.98.98-16.22 1.53-26.02 1.53s-19.04-.55-26.02-1.53C5.85 117.25.5 115.56.5 110.9V57.91c0-2.21 1.79-4 4-4 4 0 9.73-9.17 9.98-24.1 0-.13.01-.25.02-.38V4.01c0-2.21 1.79-4.01 4-4.01h8c2.21 0 4 1.8 4 4.01v20.86c0 4.97 4.04 9.01 9 9.01h2c4.96 0 9-4.04 9-9.01V4.01c0-2.21 1.79-4.01 4-4.01h8c2.21 0 4 1.8 4 4.01v25.42c.01.13.02.25.02.38.25 14.93 5.98 24.1 9.98 24.1 2.21 0 4 1.79 4 4v52.99c0 4.66-5.35 6.35-13.98 7.57z" fill="#FF5274" fill-rule="evenodd"/></svg><svg width="84.65" height="96" viewBox="0 0 97 110" id="women" y="286"><title>women</title><path d="M70.64 0h-6.06c-2.23 0-4.04 1.79-4.04 4 0 6.62-5.43 12-12.11 12S36.32 10.62 36.32 4c0-2.21-1.81-4-4.04-4h-6.05c-.65 0-1.29.16-1.87.45L2.16 11.92c-1.92.99-2.71 3.3-1.79 5.24L10.55 38.7a4.014 4.014 0 0 0 3.59 2.3c.12 2.9.84 5.34 1.6 7.91 1.13 3.82 2.41 8.15 2.41 16 0 13.69-3.93 36.18-3.97 36.41-.04.22-.06.45-.06.69 0 4.74 5.89 5.93 11.94 6.75 5.72.77 13.66 1.21 22.36 1.24 8.72-.03 16.66-.47 22.39-1.24 6.04-.82 11.94-2.01 11.94-6.75 0-.24-.02-.47-.06-.69-.04-.23-3.98-22.72-3.98-36.41 0-7.85 1.28-12.18 2.41-16 .76-2.57 1.48-5.01 1.61-7.91a4.01 4.01 0 0 0 3.58-2.3L96.5 17.16c.91-1.94.12-4.25-1.8-5.24L72.5.45A4.18 4.18 0 0 0 70.64 0zm0 4l22.2 11.47L82.66 37l-3.95-1v4.11c0 6.7-4.04 10.58-4.04 24.8 0 14.21 4.04 37.1 4.04 37.1 0 2.16-12.43 3.92-30.28 3.99-17.85-.07-30.28-1.83-30.28-3.99 0 0 4.04-22.89 4.04-37.1 0-14.22-4.04-18.1-4.04-24.8V36l-3.95 1L4.02 15.47 26.23 4h6.05c0 8.84 7.23 16 16.15 16 8.92 0 16.15-7.16 16.15-16h6.06z" fill="#FF5274" fill-rule="evenodd"/></svg></svg>